<svg width="26" height="25" viewBox="0 0 26 25" fill="none" xmlns="http://www.w3.org/2000/svg">
<path d="M25 7.5H21.5V7.08333C21.5 3.17139 17.6943 0 13 0C8.30566 0 4.5 3.17139 4.5 7.08333V7.5H1C0.723877 7.5 0.5 7.68656 0.5 7.91667V22.0833C0.502197 23.6934 2.06787 24.9982 4 25H22C23.9321 24.9982 25.4978 23.6934 25.5 22.0833V7.91667C25.5 7.68656 25.2761 7.5 25 7.5ZM5.5 7.08333C5.5 3.63159 8.85791 0.833333 13 0.833333C17.1421 0.833333 20.5 3.63159 20.5 7.08333V7.5H5.5V7.08333ZM24.5 22.0833C24.4983 23.2334 23.3801 24.1652 22 24.1667H4C2.61987 24.1652 1.50171 23.2334 1.5 22.0833V8.33333H4.5V11.25C4.5 11.4801 4.72388 11.6667 5 11.6667C5.27612 11.6667 5.5 11.4801 5.5 11.25V8.33333H20.5V11.25C20.5 11.4801 20.7239 11.6667 21 11.6667C21.2761 11.6667 21.5 11.4801 21.5 11.25V8.33333H24.5V22.0833Z"/>
</svg>
