<svg width="151" height="140" viewBox="0 0 151 140" fill="none" xmlns="http://www.w3.org/2000/svg">
<path d="M148.788 108.099C150.01 108.099 151 106.974 151 105.585V100.023C151 91.606 146.006 84.2072 138.857 82.0302L123.503 77.3502V70.7165C128.933 67.0049 132.575 60.2424 132.575 52.5298V30.2786C132.575 23.661 127.839 18.2773 122.018 18.2773H121.46C120.52 14.9174 117.75 12.4761 114.488 12.4761H110.316C105.751 12.4761 101.658 14.8013 98.8957 18.4614C97.414 11.3847 91.8105 6.10428 85.1387 6.10428H83.4411C82.4924 2.57469 79.6009 0 76.1898 0H71.4171C61.0009 0 52.4104 9.05013 51.4068 20.5965C49.6596 19.14 47.5064 18.2773 45.1785 18.2773H44.62C43.68 14.9174 40.9104 12.4761 37.648 12.4761H33.4763C25.178 12.4761 18.4269 20.1512 18.4269 29.5849V52.5298C18.4269 60.2424 22.0683 67.0049 27.4984 70.7165V77.3499L12.1438 82.0302C4.99366 84.2072 0 91.606 0 100.023V106.659C0 108.048 0.990355 109.174 2.21193 109.174C3.43351 109.174 4.42386 108.048 4.42386 106.659V100.023C4.42386 93.8786 8.06883 88.4771 13.2884 86.8878L27.9087 82.4315C29.1008 86.906 32.7608 90.1733 37.0805 90.1733C37.6577 90.1733 38.2225 90.1117 38.7719 90C37.4386 92.7856 36.6906 95.9604 36.6906 99.2878V108.055C36.6906 109.444 37.681 110.57 38.9026 110.57C40.1241 110.57 41.1145 109.444 41.1145 108.055V99.2878C41.1145 92.7638 44.9857 87.028 50.5285 85.3385L57.1572 83.3187C57.1572 83.3187 58.6286 89.2751 58.6784 89.429C59.6416 92.5811 64.1065 105.423 73.381 107.231V134.971H56.9242V117.138C56.9242 115.749 55.9338 114.623 54.7123 114.623C53.4907 114.623 52.5003 115.749 52.5003 117.138V134.971H41.1145V119.77C41.1145 118.381 40.1241 117.256 38.9026 117.256C37.681 117.256 36.6906 118.381 36.6906 119.77V124.797H19.4485V120.866C19.4485 119.477 18.4581 118.351 17.2365 118.351C16.015 118.351 15.0246 119.477 15.0246 120.866V124.797H4.42386V118.418C4.42386 117.029 3.43351 115.903 2.21193 115.903C0.990355 115.903 0 117.029 0 118.418V127.312C0 128.701 0.990355 129.826 2.21193 129.826H36.6906V137.485C36.6906 138.874 37.681 140 38.9026 140H112.284C113.505 140 114.495 138.874 114.495 137.485V129.827H148.788C150.01 129.827 151 128.701 151 127.312V117.31C151 115.921 150.01 114.795 148.788 114.795C147.566 114.795 146.576 115.921 146.576 117.31V124.798H135.977V120.866C135.977 119.477 134.986 118.351 133.765 118.351C132.543 118.351 131.553 119.477 131.553 120.866V124.798H114.495V99.2875C114.495 95.9769 113.756 92.8171 112.435 90.0416C112.919 90.1277 113.415 90.173 113.921 90.173C118.24 90.173 121.9 86.906 123.092 82.4315L137.712 86.8875C142.931 88.4768 146.576 93.8783 146.576 100.022V105.584C146.576 106.973 147.566 108.099 148.788 108.099ZM113.921 68.7071C106.858 68.7071 100.982 62.8255 99.879 55.1447V49.3827C102.396 48.4245 104.278 45.8796 104.6 42.797H113.921C116.145 42.797 118.156 41.7422 119.59 40.0513C121.025 41.7422 123.036 42.797 125.26 42.797H128.151V52.5291C128.151 61.4501 121.767 68.7071 113.921 68.7071ZM88.4666 87.3066C88.4472 87.3754 88.3897 87.5759 88.2935 87.8813C87.8679 89.0374 87.0389 89.8984 85.9589 90.2823C84.7187 90.7229 83.4341 90.4335 82.4357 89.4873L80.2884 87.4531C82.628 86.0265 84.4097 83.5685 85.1641 80.6176L89.7555 82.0168L88.4666 87.3066ZM65.6254 75.5313L55.7309 78.5462L55.7348 49.7935H56.0905C56.2391 57.6868 60.028 64.5774 65.6254 68.3745V75.5313ZM51.3071 66.225V78.7645L46.6632 77.3495V70.7162C48.4201 69.5152 49.9876 67.9936 51.3071 66.225ZM53.519 38.9415H56.0798V44.7641H53.519C52.1069 44.7641 50.9582 43.4578 50.9582 41.8525C50.9582 40.2471 52.1069 38.9415 53.519 38.9415ZM81.5586 35.994C82.9769 37.7153 84.9621 38.8262 87.1728 38.9331L90.673 49.7331C90.4757 58.9982 83.7894 66.4681 75.5929 66.4681C67.494 66.4681 60.8673 59.1759 60.5205 50.0637L63.0754 45.8186C65.6669 41.5121 69.9542 38.9415 74.5439 38.9415H75.5929C77.9443 38.9415 80.0654 37.8059 81.5586 35.994ZM97.6671 38.9415C99.0792 38.9415 100.228 40.2474 100.228 41.8528C100.228 43.4582 99.0792 44.7645 97.6671 44.7645H95.1063V38.9418H97.6671V38.9415ZM70.0492 70.58C71.8075 71.1735 73.6673 71.4974 75.5929 71.4974C77.5185 71.4974 79.3782 71.1735 81.1366 70.58V77.4609C81.1366 80.9358 78.6495 83.7633 75.5929 83.7633C72.5363 83.7633 70.0492 80.9358 70.0492 77.4609V70.58ZM85.5604 75.5313V68.3745C91.1578 64.577 94.9467 57.6868 95.0954 49.7935H95.4549V78.5462L85.5604 75.5313ZM104.338 77.3492L99.879 78.7078V66.4671C101.16 68.1324 102.662 69.5705 104.338 70.7162V77.3492ZM128.151 30.2783V37.768H125.26C123.353 37.768 121.802 36.0044 121.802 33.8367V23.3063H122.018C125.4 23.3063 128.151 26.4339 128.151 30.2783ZM110.315 17.5051H114.487C116.082 17.5051 117.378 18.9794 117.378 20.7916V33.8367C117.378 36.0044 115.827 37.768 113.921 37.768H103.654C102.77 36.0996 101.362 34.8295 99.6903 34.2531V29.5849C99.6903 22.9241 104.457 17.5051 110.315 17.5051ZM94.8585 22.1834V33.9118H92.8943C91.8527 33.9118 90.9815 34.7313 90.7467 35.8337C90.0244 34.6538 88.825 33.9118 87.5249 33.9118C85.4549 33.9118 83.7709 31.9973 83.7709 29.6439V11.1333H85.1384C90.4981 11.1333 94.8585 16.0905 94.8585 22.1834ZM71.4168 5.029H76.1895C77.9305 5.029 79.347 6.6394 79.347 8.61861V29.6443C79.347 31.9977 77.663 33.9122 75.5929 33.9122H74.5439C69.0919 33.9122 63.9646 36.6645 60.5037 41.3616V36.4268C60.5037 35.0377 59.5133 33.9122 58.2918 33.9122H55.7309V22.8617C55.7309 13.029 62.7675 5.029 71.4168 5.029ZM51.3071 30.1911V34.3229C49.7578 34.9127 48.4493 36.1029 47.5966 37.651C46.0869 37.2292 44.9624 35.6815 44.9624 33.837V23.3066H45.1783C48.5339 23.3063 51.2652 26.3873 51.3071 30.1911ZM22.8504 29.5849C22.8504 22.9244 27.617 17.5054 33.476 17.5054H37.6477C39.2417 17.5054 40.5385 18.9797 40.5385 20.792V33.837C40.5385 36.0047 38.9872 37.7683 37.0805 37.7683H22.8504V29.5849ZM22.8504 52.5294V42.7973H37.0805C39.3051 42.7973 41.3159 41.7425 42.7501 40.0516C43.7721 41.256 45.0862 42.1365 46.562 42.5435C46.8056 45.7415 48.7229 48.4013 51.3106 49.3844V52.4419C51.3097 52.4711 51.3068 52.7038 51.3068 52.7038C51.2239 61.544 44.8757 68.7075 37.0805 68.7075C29.2341 68.7071 22.8504 61.4501 22.8504 52.5294ZM31.922 79.2791V72.9053C33.5615 73.4427 35.2909 73.7365 37.0808 73.7365C38.8707 73.7365 40.5998 73.4424 42.2396 72.9053V79.2791C42.2396 82.5133 39.9254 85.144 37.0808 85.144C34.2363 85.144 31.922 82.513 31.922 79.2791ZM66.0217 80.6173C66.7761 83.5681 68.5575 86.0262 70.8974 87.4528L68.7501 89.4873C67.752 90.4335 66.4677 90.7232 65.2272 90.2823C64.1469 89.8984 63.3179 89.0374 62.8923 87.881C62.7953 87.5725 62.7374 87.3713 62.7189 87.306L61.4303 82.0164L66.0217 80.6173ZM66.2683 95.5054C66.2984 95.5058 66.3284 95.5091 66.3582 95.5091C68.2416 95.5091 70.0884 94.7658 71.5822 93.3505L75.5929 89.5507L79.6036 93.3505C81.0974 94.7661 82.9442 95.5091 84.8276 95.5091C84.8574 95.5091 84.8874 95.5058 84.9175 95.5054C82.7905 99.0575 79.6956 102.415 75.5929 102.415C71.4902 102.415 68.3953 99.0575 66.2683 95.5054ZM110.072 134.971H98.6858V117.138C98.6858 115.749 97.6954 114.623 96.4738 114.623C95.2523 114.623 94.2619 115.749 94.2619 117.138V134.971H77.8048V107.231C87.0793 105.422 91.5445 92.5807 92.5074 89.429C92.5572 89.2751 94.0286 83.3187 94.0286 83.3187L100.657 85.3385C106.2 87.0277 110.071 92.7638 110.071 99.2878V134.971H110.072ZM113.921 85.144C111.076 85.144 108.762 82.513 108.762 79.2791V72.9053C110.401 73.4427 112.131 73.7365 113.921 73.7365C115.711 73.7365 117.44 73.4424 119.079 72.9053V79.2791C119.079 82.513 116.765 85.144 113.921 85.144Z" fill="#A52558"/>
</svg>
