<svg width="130" height="130" viewBox="0 0 130 130" fill="none" xmlns="http://www.w3.org/2000/svg">
<path d="M87.3438 2.03125H86.1087L85.54 3.12812C80.5309 12.7887 74.6383 22.0431 68.0672 30.7227L66.3244 28.9798C64.0819 26.7373 60.7872 25.9695 57.8358 26.8145C56.3509 24.1272 53.4747 22.3438 50.3019 22.3438H47.2002C44.0273 22.3438 41.1511 24.1272 39.6662 26.8145C36.7148 25.9695 33.4181 26.7353 31.1777 28.9798L28.9839 31.1736C26.7414 33.4161 25.9675 36.7128 26.8186 39.6642C24.1272 41.1511 22.3438 44.0273 22.3438 47.1981V50.2998C22.3438 51.2748 22.5306 52.2173 22.8434 53.105L3.09563 60.6937L13.8856 66.0887L11.0541 77.4069L29.1444 66.4869L30.7369 68.0794C22.0533 74.6505 12.7827 80.533 3.12812 85.54L2.03125 86.1087V87.3438C2.03125 109.744 20.2556 127.969 42.6562 127.969H43.8913L44.46 126.872C62.8692 91.3656 91.3677 62.8692 126.872 44.46L127.969 43.8913V42.6562C127.969 20.2556 109.744 2.03125 87.3438 2.03125ZM123.811 40.5173C105.349 39.4469 90.5511 24.6492 89.4827 6.18922C107.937 7.26375 122.736 22.0655 123.811 40.5173ZM71.0145 60.0173C70.9962 59.2841 70.8906 58.5487 70.6834 57.8358C73.3728 56.3489 75.1562 53.4727 75.1562 50.3019V47.2002C75.1562 44.0273 73.3728 41.1511 70.6834 39.6662C71.1933 37.895 71.108 36.0039 70.4823 34.2855C76.1759 26.8734 81.3373 19.0166 85.9259 10.8591C88.7981 27.8038 102.168 41.1816 119.106 44.0659C105.625 51.6425 93.1877 60.6653 81.9955 70.9983L71.0145 60.0173ZM26.4062 47.1981C26.4062 45.0877 27.9033 43.227 29.967 42.77L32.8047 42.1423L31.2406 39.6927C30.1031 37.9113 30.3611 35.5367 31.8541 34.0458L34.0478 31.852C35.5408 30.3631 37.9153 30.1072 39.6947 31.2386L42.1444 32.8027L42.772 29.967C43.227 27.9033 45.0897 26.4062 47.1981 26.4062H50.2998C52.4103 26.4062 54.273 27.9033 54.728 29.967L55.3556 32.8027L57.8053 31.2386C59.5867 30.1052 61.9613 30.3611 63.4522 31.852L65.6459 34.0458C67.1369 35.5367 67.3948 37.9113 66.2594 39.6927L64.6953 42.1423L67.533 42.77C69.5967 43.227 71.0938 45.0877 71.0938 47.1981V50.2998C71.0938 52.4103 69.5967 54.2709 67.533 54.728L64.6953 55.3556L66.2594 57.8053C67.3969 59.5867 67.1389 61.9613 65.6459 63.4522L63.4522 65.6459C61.9613 67.1369 59.5867 67.3948 57.8053 66.2594L55.3556 64.6953L54.728 67.5309C54.273 69.5967 52.4103 71.0938 50.3019 71.0938H47.2002C45.0897 71.0938 43.227 69.5967 42.772 67.533L42.1444 64.6973L39.6947 66.2614C37.9153 67.3989 35.5408 67.1409 34.0478 65.648L31.8541 63.4542C30.3631 61.9633 30.1052 59.5887 31.2406 57.8073L32.8047 55.3577L29.967 54.73C27.9033 54.273 26.4062 52.4123 26.4062 50.3019V47.1981ZM34.4439 70.5331C36.1177 71.1059 37.9478 71.177 39.6642 70.6855C40.0075 71.307 40.4341 71.8758 40.9134 72.3897L36.3187 84.3456L33.5887 78.8836L28.6589 80.1166L34.4439 70.5331ZM13.1544 61.1813L25.1123 56.5866C25.6262 57.0659 26.193 57.4905 26.8166 57.8358C26.3209 59.5522 26.392 61.3803 26.9669 63.0561L17.3855 68.8431L18.6164 63.9113L13.1544 61.1813ZM41.4355 123.886C22.2422 123.252 6.74578 107.756 6.11203 88.5625C13.0183 84.9245 19.7173 80.8336 26.1605 76.3913L20.0891 86.4439L31.4092 83.6144L36.8042 94.4023L44.3909 74.6566C45.2786 74.9694 46.2191 75.1542 47.1961 75.1542H50.2978C53.4706 75.1542 56.3469 73.3708 57.8317 70.6834C58.5447 70.8866 59.2759 70.9922 60.0092 71.0105L70.9942 81.9955C59.4527 94.5019 49.5138 108.544 41.4355 123.886ZM73.8055 79.0583L64.5897 69.8425C65.2133 69.4809 65.8003 69.0442 66.3244 68.5202L68.5181 66.3264C69.0442 65.8003 69.4809 65.2153 69.8425 64.5917L79.0583 73.8075C77.2748 75.5239 75.5239 77.2748 73.8055 79.0583Z" fill="#A52558"/>
<path d="M48.75 62.9688C56.5906 62.9688 62.9688 56.5886 62.9688 48.75C62.9688 40.9114 56.5906 34.5312 48.75 34.5312C40.9094 34.5312 34.5312 40.9114 34.5312 48.75C34.5312 56.5886 40.9094 62.9688 48.75 62.9688ZM48.75 38.5938C54.3502 38.5938 58.9062 43.1498 58.9062 48.75C58.9062 54.3502 54.3502 58.9062 48.75 58.9062C43.1498 58.9062 38.5938 54.3502 38.5938 48.75C38.5938 43.1498 43.1498 38.5938 48.75 38.5938Z" fill="#A52558"/>
<path d="M86.6493 25.4759L83.2347 23.274C82.5076 24.4014 81.7702 25.5186 81.0227 26.6317L84.3905 28.9006C85.1563 27.7692 85.9079 26.6256 86.6493 25.4759Z" fill="#A52558"/>
<path d="M82.0664 32.2827L78.7413 29.9508C77.9714 31.0477 77.1894 32.1364 76.3972 33.215L79.6716 35.62C80.4821 34.515 81.2803 33.4019 82.0664 32.2827Z" fill="#A52558"/>
<path d="M55.0652 88.1136C53.9764 89.4888 52.9039 90.8761 51.8477 92.2818L55.0977 94.7213C56.1316 93.3441 57.1817 91.9832 58.2502 90.6365L55.0652 88.1136Z" fill="#A52558"/>
<path d="M47.4218 98.4039L50.7591 100.726C51.7239 99.3363 52.705 97.9611 53.7044 96.6002L50.43 94.1952C49.4103 95.5846 48.4069 96.9882 47.4218 98.4039Z" fill="#A52558"/>
<path d="M36.9119 115.198C31.0416 113.984 25.6405 110.9 21.576 106.413L18.5657 109.137C23.5686 114.664 30.353 118.328 37.6716 119.46L39.0732 119.675L39.7597 118.434C42.7315 113.053 45.9754 107.758 49.4021 102.7L46.0384 100.423C42.8127 105.182 39.7476 110.149 36.9119 115.198Z" fill="#A52558"/>
</svg>
