<svg width="130" height="130" viewBox="0 0 130 130" fill="none" xmlns="http://www.w3.org/2000/svg">
<path d="M70.7129 47.8979C70.7115 46.4421 70.1331 45.0461 69.1044 44.016C68.0757 42.9859 66.6805 42.4056 65.2247 42.4023H49.7656V28.082C49.7656 23.8834 46.3059 20.5664 42.1068 20.5664H39.3748C38.5336 20.5664 37.832 21.1504 37.832 21.9906V32.4101C37.8361 33.515 37.6515 34.6125 37.2861 35.6553C36.7853 37.0367 35.9336 38.264 34.8149 39.2167C33.6961 40.1694 32.3488 40.8145 30.9052 41.0889L31.0362 40.0387C31.0626 39.8253 31.0431 39.6087 30.9792 39.4034C30.9153 39.1981 30.8084 39.0088 30.6655 38.8481C30.5227 38.6873 30.3473 38.5589 30.1509 38.4712C29.9546 38.3836 29.7418 38.3388 29.5268 38.3398H18.2213C17.8499 38.3387 17.4909 38.4738 17.2123 38.7195C16.9336 38.9652 16.7547 39.3044 16.7093 39.6731L12.2281 76.232C12.2017 76.4466 12.2211 76.6643 12.2849 76.8708C12.3487 77.0773 12.4556 77.268 12.5985 77.4302C12.7413 77.5925 12.9169 77.7226 13.1137 77.812C13.3105 77.9015 13.524 77.9482 13.7401 77.9492H25.0456C25.4129 77.9592 25.7708 77.8326 26.0501 77.5938C26.3294 77.3551 26.5103 77.0212 26.5576 76.6568L26.9958 73.125H30.7861C34.8925 73.0886 38.9268 74.2035 42.4318 76.3433C46.5245 78.8823 49.5919 78.9648 54.1605 78.9648H63.018C63.7693 78.9696 64.5141 78.8259 65.2097 78.5421C65.9053 78.2583 66.5381 77.8399 67.0716 77.311C67.6052 76.7821 68.0291 76.153 68.3189 75.4599C68.6088 74.7668 68.759 74.0233 68.7609 73.272C68.7617 72.0666 68.3761 70.8926 67.6607 69.9225C68.4767 69.4899 69.1762 68.8668 69.6998 68.106C70.2234 67.3452 70.5557 66.4693 70.6684 65.5527C70.781 64.6361 70.6708 63.7058 70.347 62.8408C70.0233 61.9759 69.4955 61.2019 68.8086 60.5846C69.4024 60.0393 69.8777 59.3778 70.2051 58.6411C70.5324 57.9044 70.7048 57.1082 70.7114 56.3021C70.7181 55.4959 70.5589 54.6971 70.2437 53.9551C69.9285 53.213 69.4642 52.5438 68.8794 51.9888C69.4562 51.4747 69.9177 50.8445 70.2337 50.1394C70.5496 49.4344 70.713 48.6705 70.7129 47.8979ZM23.6973 74.9023H15.4629L19.5693 41.3867H27.8053L23.6973 74.9023ZM56.8468 53.3203H64.8195C65.5939 53.3203 66.3366 53.6279 66.8842 54.1755C67.4318 54.7231 67.7394 55.4658 67.7394 56.2402C67.7394 57.0146 67.4318 57.7573 66.8842 58.3049C66.3366 58.8525 65.5939 59.1602 64.8195 59.1602H58.9837C58.5796 59.1602 58.1922 59.3207 57.9065 59.6064C57.6208 59.8921 57.4602 60.2795 57.4602 60.6836C57.4602 61.0876 57.6208 61.4751 57.9065 61.7608C58.1922 62.0465 58.5796 62.207 58.9837 62.207H64.9505C65.6576 62.207 66.3357 62.4879 66.8356 62.9879C67.3356 63.4879 67.6165 64.166 67.6165 64.873C67.6165 65.5801 67.3356 66.2582 66.8356 66.7582C66.3357 67.2582 65.6576 67.5391 64.9505 67.5391H59.1254C58.7213 67.5391 58.3338 67.6996 58.0481 67.9853C57.7624 68.271 57.6019 68.6585 57.6019 69.0625C57.6019 69.4665 57.7624 69.854 58.0481 70.1397C58.3338 70.4254 58.7213 70.5859 59.1254 70.5859H63.018C63.7251 70.5859 64.4032 70.8668 64.9032 71.3668C65.4031 71.8668 65.684 72.5449 65.684 73.2519C65.684 73.959 65.4031 74.6371 64.9032 75.1371C64.4032 75.6371 63.7251 75.918 63.018 75.918H54.1605C49.6605 75.918 47.3431 75.8045 44.038 73.7542C40.0508 71.3151 35.4601 70.0417 30.7861 70.0781H27.3696L30.5246 44.2858C32.6801 44.05 34.7261 43.2135 36.4295 41.8717C38.1328 40.5298 39.425 38.7365 40.1588 36.6961C40.6396 35.3184 40.8831 33.8692 40.8789 32.4101V23.6133H42.1068C44.6261 23.6133 46.7187 25.5635 46.7187 28.082V41.1648C46.5187 41.1329 46.3141 41.1441 46.1187 41.1975C45.9233 41.251 45.7415 41.3455 45.5856 41.4748C45.427 41.596 45.2939 41.7473 45.194 41.9201C45.0941 42.0929 45.0293 42.2837 45.0034 42.4815C44.9774 42.6794 44.9908 42.8805 45.0428 43.0732C45.0948 43.2658 45.1843 43.4464 45.3063 43.6043C45.7513 44.1817 46.3235 44.6485 46.9785 44.9685C47.6335 45.2885 48.3534 45.453 49.0824 45.4492H65.2247C65.8693 45.4558 66.4853 45.7165 66.9388 46.1746C67.3923 46.6327 67.6467 47.2513 67.6467 47.896C67.6467 48.5406 67.3923 49.1592 66.9388 49.6174C66.4853 50.0755 65.8693 50.3362 65.2247 50.3427L56.8458 50.2734C56.4418 50.2734 56.0543 50.4339 55.7686 50.7196C55.4829 51.0053 55.3224 51.3928 55.3224 51.7969C55.3224 52.2009 55.4829 52.5884 55.7686 52.8741C56.0543 53.1598 56.4418 53.3203 56.8458 53.3203H56.8468Z" fill="#A52558"/>
<path d="M116.26 34.0234H104.939C104.535 34.0234 104.148 34.1839 103.862 34.4696C103.577 34.7553 103.416 35.1428 103.416 35.5469C103.416 35.9509 103.577 36.3384 103.862 36.6241C104.148 36.9098 104.535 37.0703 104.939 37.0703H116.261C116.665 37.0703 117.052 36.9098 117.338 36.6241C117.624 36.3384 117.784 35.9509 117.784 35.5469C117.784 35.1428 117.624 34.7553 117.338 34.4696C117.052 34.1839 116.665 34.0234 116.261 34.0234H116.26Z" fill="#A52558"/>
<path d="M76.3322 37.0703H96.4265C96.8306 37.0703 97.2181 36.9098 97.5038 36.6241C97.7895 36.3384 97.95 35.9509 97.95 35.5469C97.95 35.1428 97.7895 34.7553 97.5038 34.4696C97.2181 34.1839 96.8306 34.0234 96.4265 34.0234H76.3322C75.9281 34.0234 75.5406 34.1839 75.2549 34.4696C74.9692 34.7553 74.8087 35.1428 74.8087 35.5469C74.8087 35.9509 74.9692 36.3384 75.2549 36.6241C75.5406 36.9098 75.9281 37.0703 76.3322 37.0703Z" fill="#A52558"/>
<path d="M116.26 46.2109H91.0785C90.6745 46.2109 90.287 46.3714 90.0013 46.6571C89.7156 46.9428 89.5551 47.3303 89.5551 47.7344C89.5551 48.1384 89.7156 48.5259 90.0013 48.8116C90.287 49.0973 90.6745 49.2578 91.0785 49.2578H116.26C116.664 49.2578 117.051 49.0973 117.337 48.8116C117.623 48.5259 117.783 48.1384 117.783 47.7344C117.783 47.3303 117.623 46.9428 117.337 46.6571C117.051 46.3714 116.664 46.2109 116.26 46.2109Z" fill="#A52558"/>
<path d="M76.3322 49.2578H82.0588C82.4628 49.2578 82.8503 49.0973 83.136 48.8116C83.4217 48.5259 83.5822 48.1384 83.5822 47.7344C83.5822 47.3303 83.4217 46.9428 83.136 46.6571C82.8503 46.3714 82.4628 46.2109 82.0588 46.2109H76.3322C75.9281 46.2109 75.5406 46.3714 75.2549 46.6571C74.9692 46.9428 74.8087 47.3303 74.8087 47.7344C74.8087 48.1384 74.9692 48.5259 75.2549 48.8116C75.5406 49.0973 75.9281 49.2578 76.3322 49.2578Z" fill="#A52558"/>
<path d="M116.26 58.1445H105.551C105.147 58.1445 104.76 58.305 104.474 58.5907C104.188 58.8764 104.028 59.2639 104.028 59.668C104.028 60.072 104.188 60.4595 104.474 60.7452C104.76 61.0309 105.147 61.1914 105.551 61.1914H116.26C116.664 61.1914 117.051 61.0309 117.337 60.7452C117.623 60.4595 117.783 60.072 117.783 59.668C117.783 59.2639 117.623 58.8764 117.337 58.5907C117.051 58.305 116.664 58.1445 116.26 58.1445Z" fill="#A52558"/>
<path d="M98.5627 59.668C98.5627 59.2639 98.4022 58.8764 98.1165 58.5907C97.8308 58.305 97.4433 58.1445 97.0392 58.1445H76.3322C75.9281 58.1445 75.5406 58.305 75.2549 58.5907C74.9692 58.8764 74.8087 59.2639 74.8087 59.668C74.8087 60.072 74.9692 60.4595 75.2549 60.7452C75.5406 61.0309 75.9281 61.1914 76.3322 61.1914H97.0392C97.4433 61.1914 97.8308 61.0309 98.1165 60.7452C98.4022 60.4595 98.5627 60.072 98.5627 59.668Z" fill="#A52558"/>
<path d="M116.26 70.0781H92.8561C92.452 70.0781 92.0645 70.2386 91.7788 70.5243C91.4931 70.81 91.3326 71.1975 91.3326 71.6016C91.3326 72.0056 91.4931 72.3931 91.7788 72.6788C92.0645 72.9645 92.452 73.125 92.8561 73.125H116.26C116.664 73.125 117.051 72.9645 117.337 72.6788C117.623 72.3931 117.783 72.0056 117.783 71.6016C117.783 71.1975 117.623 70.81 117.337 70.5243C117.051 70.2386 116.664 70.0781 116.26 70.0781Z" fill="#A52558"/>
<path d="M84.3439 70.0781H76.3322C75.9281 70.0781 75.5406 70.2386 75.2549 70.5243C74.9692 70.81 74.8087 71.1975 74.8087 71.6016C74.8087 72.0056 74.9692 72.3931 75.2549 72.6788C75.5406 72.9645 75.9281 73.125 76.3322 73.125H84.3439C84.748 73.125 85.1354 72.9645 85.4211 72.6788C85.7068 72.3931 85.8673 72.0056 85.8673 71.6016C85.8673 71.1975 85.7068 70.81 85.4211 70.5243C85.1354 70.2386 84.748 70.0781 84.3439 70.0781Z" fill="#A52558"/>
<path d="M116.327 9.64844H13.6734C10.9814 9.65993 8.40398 10.7391 6.50688 12.6491C4.60978 14.559 3.54804 17.1437 3.55472 19.8357V84.7016C3.55472 90.3018 8.07425 94.9609 13.6734 94.9609H62.2858C65.7313 94.9609 68.2526 95.9926 69.9977 98.2208C75.0522 104.68 71.7451 118.319 71.7115 118.455C71.6473 118.711 71.6515 118.979 71.7238 119.232C71.7961 119.485 71.9339 119.715 72.1234 119.898C72.3132 120.083 72.5483 120.215 72.8051 120.28C73.0619 120.346 73.3314 120.343 73.5866 120.271C73.7682 120.222 78.0785 119.027 82.2908 115.303C86.1824 111.862 90.7248 105.531 90.2635 94.9119C90.2635 94.8865 90.2688 94.9264 90.2746 94.9203C90.2805 94.9142 90.2866 94.9609 90.3097 94.9609H115.177C116.272 94.9443 117.358 94.7677 118.402 94.4369C120.727 93.7168 122.762 92.2724 124.209 90.3144C125.656 88.3563 126.44 85.9871 126.445 83.5524V19.8357C126.452 17.1437 125.39 14.559 123.493 12.6491C121.596 10.7391 119.019 9.65993 116.327 9.64844ZM123.398 83.5524C123.396 85.3321 122.825 87.0645 121.77 88.4972C120.714 89.9299 119.228 90.9881 117.529 91.5177C116.769 91.7638 115.976 91.8974 115.177 91.9141H90.3099C89.8951 91.9013 89.4821 91.9746 89.0971 92.1295C88.7121 92.2844 88.3634 92.5174 88.073 92.8139C87.7826 93.1104 87.5569 93.4639 87.41 93.8521C87.2632 94.2402 87.1984 94.6546 87.2199 95.0691C87.5459 102.579 85.2394 108.586 80.3674 112.947C78.822 114.321 77.0911 115.47 75.2256 116.362C76.0061 111.616 76.8608 102.056 72.4006 96.3511C70.0738 93.3748 66.6707 91.9141 62.2858 91.9141H13.6734C9.75308 91.9141 6.60159 88.6219 6.60159 84.7016V19.8357C6.59396 17.9515 7.33439 16.1412 8.66029 14.8025C9.9862 13.4637 11.7892 12.7059 13.6734 12.6953H116.328C118.212 12.7061 120.014 13.4641 121.34 14.8028C122.666 16.1416 123.406 17.9516 123.398 19.8357V83.5524Z" fill="#A52558"/>
<path d="M12.6953 24.6289C13.0994 24.6289 13.4868 24.4684 13.7725 24.1827C14.0582 23.897 14.2188 23.5095 14.2188 23.1055V21.0742C14.2188 20.6702 14.0582 20.2827 13.7725 19.997C13.4868 19.7113 13.0994 19.5508 12.6953 19.5508C12.2913 19.5508 11.9038 19.7113 11.6181 19.997C11.3324 20.2827 11.1719 20.6702 11.1719 21.0742V23.1055C11.1719 23.5095 11.3324 23.897 11.6181 24.1827C11.9038 24.4684 12.2913 24.6289 12.6953 24.6289Z" fill="#A52558"/>
<path d="M14.2188 44.6875V27.6758C14.2188 27.2717 14.0582 26.8842 13.7725 26.5985C13.4868 26.3128 13.0994 26.1523 12.6953 26.1523C12.2913 26.1523 11.9038 26.3128 11.6181 26.5985C11.3324 26.8842 11.1719 27.2717 11.1719 27.6758V44.6875C11.1719 45.0915 11.3324 45.479 11.6181 45.7647C11.9038 46.0504 12.2913 46.2109 12.6953 46.2109C13.0994 46.2109 13.4868 46.0504 13.7725 45.7647C14.0582 45.479 14.2188 45.0915 14.2188 44.6875Z" fill="#A52558"/>
</svg>
