<svg width="130" height="130" viewBox="0 0 130 130" fill="none" xmlns="http://www.w3.org/2000/svg">
<path d="M105.705 59.5825C105.705 59.582 105.705 59.5814 105.705 59.5807C105.329 58.2055 104.434 57.0942 103.248 56.532C88.9367 49.9729 88.5776 49.0316 85.8068 49.0316C84.731 49.0316 83.6818 49.2703 82.6888 49.741L68.3657 56.5318C67.1794 57.0939 66.2839 58.205 65.9081 59.5825C65.4434 61.2933 64.6637 64.8246 64.6637 69.253C64.6637 81.1369 70.0717 92.0884 81.4789 100.297C84.1196 102.198 87.4902 102.199 90.1343 100.297C101.566 92.0696 106.95 81.1089 106.95 69.2533C106.95 64.8244 106.17 61.2933 105.705 59.5825ZM87.8946 97.1843C86.5926 98.1209 85.0242 98.1237 83.7191 97.1845C73.3308 89.7075 68.4985 79.8569 68.4985 69.253C68.4985 65.2695 69.1941 62.1142 69.6083 60.59C69.7015 60.248 69.8817 60.0568 70.0082 59.9971C84.9889 53.0129 84.4654 52.8661 85.8068 52.8661C87.1393 52.8661 86.6388 53.0195 101.606 59.9971C101.731 60.0568 101.911 60.2474 102.005 60.5882C102.42 62.1147 103.115 65.27 103.115 69.2535C103.115 79.8374 98.3008 89.693 87.8946 97.1843Z" fill="#A52558"/>
<path d="M108.968 0H42.2521C37.2258 0 33.1366 4.08917 33.1366 9.11525V96.1814H22.1366C16.6324 96.1814 12.1545 100.66 12.1545 106.164V117.655C12.1545 124.462 17.6922 129.999 24.4987 129.999C53.8493 129.999 83.6783 129.999 104.166 130C111.709 130 117.846 123.863 117.846 116.321V8.87709C117.845 3.98227 113.863 0 108.968 0ZM26.7628 125.896C21.0354 127.314 15.9893 123.052 15.9893 117.655V106.164C15.9893 102.774 18.747 100.016 22.1366 100.016H33.1382C33.1382 100.017 33.1382 100.017 33.1382 100.017V100.017C33.1382 100.018 33.1382 100.019 33.1382 100.019C33.1382 100.02 33.1382 100.022 33.1382 100.024C33.1382 100.041 33.1382 100.055 33.1382 100.065C33.1382 100.068 33.1382 100.07 33.1382 100.073C33.1382 100.075 33.1382 100.077 33.1382 100.079C33.1382 100.08 33.1382 100.081 33.1382 100.082C33.1382 100.082 33.1382 100.083 33.1382 100.083C33.1384 100.502 33.1399 103.231 33.1476 117.655C33.1476 121.614 30.43 124.95 26.7628 125.896ZM114.011 116.321C114.011 121.749 109.594 126.166 104.166 126.166H33.5756C37.7097 121.824 36.9191 116.926 36.9821 114.428V98.0986C36.9821 98.0306 36.9782 97.9633 36.9714 97.897V9.11525C36.9714 6.20345 39.3406 3.8345 42.2524 3.8345H108.968C111.749 3.8345 114.011 6.09655 114.011 8.87683V116.321Z" fill="#A52558"/>
<path d="M97.0967 66.002C96.2723 65.3373 95.0654 65.467 94.4007 66.2912C81.5573 82.1378 82.3998 81.3256 82.149 81.3426C81.9016 81.3586 82.1545 81.405 77.0404 76.6166C76.2723 75.8879 75.0589 75.9189 74.3296 76.6869C73.6004 77.455 73.6319 78.6684 74.4 79.3979L79.2968 84.0472C80.0618 84.7739 81.0828 85.1781 82.1324 85.1781C83.3484 85.1781 84.5402 84.6299 85.3334 83.6463L97.3856 68.6988C98.0504 67.8738 97.9209 66.6668 97.0967 66.002Z" fill="#A52558"/>
<path d="M93.6657 14.6499H44.8369C43.7781 14.6499 42.9197 15.5081 42.9197 16.5672C42.9197 17.6262 43.7781 18.4844 44.8369 18.4844H93.6655C94.7243 18.4844 95.5827 17.6262 95.5827 16.5672C95.5827 15.5081 94.7245 14.6499 93.6657 14.6499Z" fill="#A52558"/>
<path d="M105.032 14.6499H101.335C100.276 14.6499 99.4177 15.5081 99.4177 16.5672C99.4177 17.6262 100.276 18.4844 101.335 18.4844H105.032C106.091 18.4844 106.949 17.6262 106.949 16.5672C106.949 15.5081 106.091 14.6499 105.032 14.6499Z" fill="#A52558"/>
<path d="M105.032 111.238H59.5269C58.4681 111.238 57.6097 112.096 57.6097 113.155C57.6097 114.214 58.4681 115.072 59.5269 115.072H105.032C106.091 115.072 106.949 114.214 106.949 113.155C106.95 112.096 106.091 111.238 105.032 111.238Z" fill="#A52558"/>
<path d="M51.8576 111.238H44.8371C43.7783 111.238 42.9199 112.096 42.9199 113.155C42.9199 114.214 43.7783 115.072 44.8371 115.072H51.8576C52.9164 115.072 53.7749 114.214 53.7749 113.155C53.7749 112.096 52.9164 111.238 51.8576 111.238Z" fill="#A52558"/>
<path d="M105.032 28.4541H44.8369C43.7781 28.4541 42.9197 29.3123 42.9197 30.3714C42.9197 31.4304 43.7781 32.2886 44.8369 32.2886H105.032C106.091 32.2886 106.949 31.4304 106.949 30.3714C106.95 29.3123 106.091 28.4541 105.032 28.4541Z" fill="#A52558"/>
<path d="M105.032 42.2582H70.0084C68.9496 42.2582 68.0912 43.1164 68.0912 44.1754C68.0912 45.2345 68.9496 46.0927 70.0084 46.0927H105.032C106.091 46.0927 106.949 45.2345 106.949 44.1754C106.949 43.1164 106.091 42.2582 105.032 42.2582Z" fill="#A52558"/>
<path d="M62.3392 42.2582H44.8371C43.7783 42.2582 42.9199 43.1164 42.9199 44.1754C42.9199 45.2345 43.7783 46.0927 44.8371 46.0927H62.3392C63.398 46.0927 64.2564 45.2345 64.2564 44.1754C64.2564 43.1164 63.398 42.2582 62.3392 42.2582Z" fill="#A52558"/>
<path d="M58.9978 56.0624H44.8369C43.7781 56.0624 42.9197 56.9206 42.9197 57.9796C42.9197 59.0387 43.7781 59.8969 44.8369 59.8969H58.9978C60.0566 59.8969 60.9151 59.0387 60.9151 57.9796C60.9151 56.9206 60.0566 56.0624 58.9978 56.0624Z" fill="#A52558"/>
<path d="M58.9978 69.8667H44.8369C43.7781 69.8667 42.9197 70.7249 42.9197 71.7839C42.9197 72.843 43.7781 73.7012 44.8369 73.7012H58.9978C60.0566 73.7012 60.9151 72.843 60.9151 71.7839C60.9151 70.7249 60.0566 69.8667 58.9978 69.8667Z" fill="#A52558"/>
<path d="M62.3212 83.6711H44.8369C43.7781 83.6711 42.9197 84.5293 42.9197 85.5884C42.9197 86.6474 43.7781 87.5056 44.8369 87.5056H62.3212C63.38 87.5056 64.2385 86.6474 64.2385 85.5884C64.2385 84.5293 63.3802 83.6711 62.3212 83.6711Z" fill="#A52558"/>
<path d="M68.5198 97.4753H44.8369C43.7781 97.4753 42.9197 98.3335 42.9197 99.3926C42.9197 100.452 43.7781 101.31 44.8369 101.31H68.5198C69.5786 101.31 70.4371 100.452 70.4371 99.3926C70.4373 98.3335 69.5789 97.4753 68.5198 97.4753Z" fill="#A52558"/>
</svg>
