<svg width="25" height="25" viewBox="0 0 25 25" fill="none" xmlns="http://www.w3.org/2000/svg">
<path d="M24.781 23.7251L18.7056 17.6497C20.3353 15.7761 21.322 13.3315 21.322 10.6596C21.322 4.77827 16.5382 0 10.6623 0C4.78096 0 0.00268555 4.78381 0.00268555 10.6596C0.00268555 16.5355 4.7865 21.3193 10.6623 21.3193C13.3342 21.3193 15.7787 20.3326 17.6524 18.7029L23.7277 24.7783C23.8719 24.9224 24.0659 25 24.2543 25C24.4428 25 24.6368 24.9279 24.781 24.7783C25.0692 24.49 25.0692 24.0133 24.781 23.7251ZM1.49382 10.6596C1.49382 5.60421 5.6069 1.49667 10.6568 1.49667C15.7122 1.49667 19.8198 5.60976 19.8198 10.6596C19.8198 15.7095 15.7122 19.8282 10.6568 19.8282C5.6069 19.8282 1.49382 15.7151 1.49382 10.6596Z"/>
</svg>
